<?xml version="1.0" encoding="utf-8"?>
<!-- Generator: Adobe Illustrator 17.0.0, SVG Export Plug-In . SVG Version: 6.00 Build 0)  -->
<!DOCTYPE svg PUBLIC "-//W3C//DTD SVG 1.1//EN" "http://www.w3.org/Graphics/SVG/1.1/DTD/svg11.dtd">
<svg version="1.1" xmlns="http://www.w3.org/2000/svg" xmlns:xlink="http://www.w3.org/1999/xlink" x="0px" y="0px"
	 width="595.28px" height="841.89px" viewBox="0 0 595.28 841.89" enable-background="new 0 0 595.28 841.89" xml:space="preserve">
<g id="Layer_1">
	<rect id="Background" fill="#A7C9EA" width="595.28" height="841.89"/>
	<polyline id="Folder_x5F_Path_x5F_Filled" fill="#E3BFDA" stroke="#000000" stroke-miterlimit="10" points="28.798,126.663 
		28.798,715.092 126.798,813.092 126.798,813.092 469.011,813.092 469.011,813.092 566.482,715.621 566.482,126.144 469.136,28.798 
		126.663,28.798 28.663,126.798 	"/>
	
		<rect id="Plain_x5F_Path_x5F_Filled" x="49.807" y="49.807" fill="#DBCFE6" stroke="#000000" stroke-miterlimit="10" width="495.667" height="742.277"/>
	<g id="Corners">
		<polygon fill="#E3BFDA" points="49.807,736.111 49.807,791.959 105.654,791.959 		"/>
		<polygon fill="#E3BFDA" points="545.473,736.111 545.473,791.959 489.626,791.959 		"/>
		<polygon fill="#E3BFDA" points="545.473,105.654 545.473,49.807 489.626,49.807 		"/>
		<polygon fill="#E3BFDA" points="49.807,105.654 49.807,49.807 105.654,49.807 		"/>
	</g>
	
		<rect id="Plain_x5F_Path" x="49.807" y="49.807" fill="none" stroke="#000000" stroke-miterlimit="10" width="495.667" height="742.277"/>
	<polyline id="Folder_x5F_Path" fill="none" stroke="#000000" stroke-miterlimit="10" points="28.798,126.663 28.798,715.092 
		126.798,813.092 126.798,813.092 469.011,813.092 469.011,813.092 566.482,715.621 566.482,126.144 469.136,28.798 126.663,28.798 
		28.663,126.798 	"/>
	<g id="Balls">
		<g>
			<circle fill="#B2D9F3" stroke="#000000" stroke-miterlimit="10" cx="297.605" cy="28.307" r="16"/>
			<circle fill="#B2D9F3" stroke="#000000" stroke-miterlimit="10" cx="329.112" cy="28.798" r="12"/>
			<circle fill="#B2D9F3" stroke="#000000" stroke-miterlimit="10" cx="353.112" cy="28.798" r="8"/>
			<circle fill="#B2D9F3" stroke="#000000" stroke-miterlimit="10" cx="369.112" cy="28.798" r="4"/>
			<circle fill="#B2D9F3" stroke="#000000" stroke-miterlimit="10" cx="266.168" cy="28.798" r="12"/>
			<circle fill="#B2D9F3" stroke="#000000" stroke-miterlimit="10" cx="242.168" cy="28.798" r="8"/>
			<circle fill="#B2D9F3" stroke="#000000" stroke-miterlimit="10" cx="226.168" cy="28.798" r="4"/>
		</g>
		<g>
			<circle fill="#B2D9F3" stroke="#000000" stroke-miterlimit="10" cx="297.605" cy="812.583" r="16"/>
			<circle fill="#B2D9F3" stroke="#000000" stroke-miterlimit="10" cx="329.112" cy="813.075" r="12"/>
			<circle fill="#B2D9F3" stroke="#000000" stroke-miterlimit="10" cx="353.112" cy="813.075" r="8"/>
			<circle fill="#B2D9F3" stroke="#000000" stroke-miterlimit="10" cx="369.112" cy="813.075" r="4"/>
			<circle fill="#B2D9F3" stroke="#000000" stroke-miterlimit="10" cx="266.168" cy="813.075" r="12"/>
			<circle fill="#B2D9F3" stroke="#000000" stroke-miterlimit="10" cx="242.168" cy="813.075" r="8"/>
			<circle fill="#B2D9F3" stroke="#000000" stroke-miterlimit="10" cx="226.168" cy="813.075" r="4"/>
		</g>
	</g>
	<g id="Squares">
		<rect x="523.973" y="28.307" fill="#B2D9F3" stroke="#000000" stroke-miterlimit="10" width="43" height="43"/>
		<rect x="28.307" y="28.307" fill="#B2D9F3" stroke="#000000" stroke-miterlimit="10" width="43" height="43"/>
		<rect x="28.307" y="770.583" fill="#B2D9F3" stroke="#000000" stroke-miterlimit="10" width="43" height="43"/>
		<rect x="523.973" y="770.583" fill="#B2D9F3" stroke="#000000" stroke-miterlimit="10" width="43" height="43"/>
	</g>
	<text transform="matrix(1 0 0 1 94.0704 748.627)" fill="#414042" font-family="'TimesNewRomanPS-BoldMT'" font-size="52">Матрица Судьбы</text>
	<g id="rays">
		<path fill="none" stroke="#FFFFFF" stroke-width="2" stroke-miterlimit="10" d="M390.191,98.313C399,80,407,62,415.997,44.307"/>
		<path fill="none" stroke="#FFFFFF" stroke-width="2" stroke-miterlimit="10" d="M297.64,292C308,268,320,245,331,221
			c15-30,28-59,42.726-88.231"/>
		<path fill="none" stroke="#FFFFFF" stroke-width="2" stroke-miterlimit="10" d="M440.599,84.94C444,78,451,72,454.366,65"/>
		<path fill="none" stroke="#FFFFFF" stroke-width="2" stroke-miterlimit="10" d="M297.64,292C341,227,388,164,431.46,98.177"/>
		<line fill="none" stroke="#FFFFFF" stroke-width="2" stroke-miterlimit="10" x1="297.64" y1="292" x2="451.116" y2="101.526"/>
		<line fill="none" stroke="#FFFFFF" stroke-width="2" stroke-miterlimit="10" x1="297.64" y1="292" x2="508" y2="111"/>
		<line fill="none" stroke="#FFFFFF" stroke-width="2" stroke-miterlimit="10" x1="297.64" y1="292" x2="508" y2="172.713"/>
		<line fill="none" stroke="#FFFFFF" stroke-width="2" stroke-miterlimit="10" x1="297.64" y1="292" x2="503" y2="232.356"/>
		<line fill="none" stroke="#FFFFFF" stroke-width="2" stroke-miterlimit="10" x1="297.64" y1="292" x2="538" y2="258"/>
		<line fill="none" stroke="#FFFFFF" stroke-width="2" stroke-miterlimit="10" x1="297.64" y1="292" x2="517.549" y2="337.994"/>
		<path fill="none" stroke="#FFFFFF" stroke-width="2" stroke-miterlimit="10" d="M498.651,368.46C512,374,525,379,538,383.427"/>
		<path fill="none" stroke="#FFFFFF" stroke-width="2" stroke-miterlimit="10" d="M297.64,292C314,299,330,304,346,310
			c36,14,71,28,107.456,41.269"/>
		<line fill="none" stroke="#FFFFFF" stroke-width="2" stroke-miterlimit="10" x1="297.64" y1="292" x2="538" y2="440.665"/>
		<line fill="none" stroke="#FFFFFF" stroke-width="2" stroke-miterlimit="10" x1="297.64" y1="292" x2="545.473" y2="482.602"/>
		<path fill="none" stroke="#FFFFFF" stroke-width="2" stroke-miterlimit="10" d="M466.614,458.552C489,480,510,502,532,523"/>
		<path fill="none" stroke="#FFFFFF" stroke-width="2" stroke-miterlimit="10" d="M297.64,292c4.36,4,8.36,9,12.36,13
			c8,7,16,15,24,22c30,29,57,57,87,86c9,9,17,18,26.443,26.656"/>
		<path fill="none" stroke="#FFFFFF" stroke-width="2" stroke-miterlimit="10" d="M474.608,532.704
			c3.43,4.84,6.926,9.635,10.536,14.342"/>
		<path fill="none" stroke="#FFFFFF" stroke-width="2" stroke-miterlimit="10" d="M438.707,481.528
			c8.996,11.855,17.311,24.203,25.71,36.482"/>
		<path fill="none" stroke="#FFFFFF" stroke-width="2" stroke-miterlimit="10" d="M300.962,287.189C305,292,308,297,312,302
			c20,29,38,54,59,83c1,2,1,3,2,5c18,24,33,46,49.903,69.232"/>
		<line fill="none" stroke="#FFFFFF" stroke-width="2" stroke-miterlimit="10" x1="297.64" y1="292" x2="421.557" y2="515.102"/>
		<line fill="none" stroke="#FFFFFF" stroke-width="2" stroke-miterlimit="10" x1="297.64" y1="292" x2="366.121" y2="505"/>
		
			<line fill="none" stroke="#FFFFFF" stroke-width="2" stroke-miterlimit="10" x1="300.962" y1="287.189" x2="341.112" y2="498.852"/>
		<path fill="none" stroke="#FFFFFF" stroke-width="2" stroke-miterlimit="10" d="M314.836,583.714C316,600,316,616,317.112,632.379
			"/>
		<path fill="none" stroke="#FFFFFF" stroke-width="2" stroke-miterlimit="10" d="M300.962,287.189C306,376,309,466,313.508,555.34"
			/>
		<line fill="none" stroke="#FFFFFF" stroke-width="2" stroke-miterlimit="10" x1="297.64" y1="292" x2="291" y2="586.712"/>
		<line fill="none" stroke="#FFFFFF" stroke-width="2" stroke-miterlimit="10" x1="297.64" y1="292" x2="266.168" y2="515.102"/>
		<line fill="none" stroke="#FFFFFF" stroke-width="2" stroke-miterlimit="10" x1="297.64" y1="292" x2="234.168" y2="505"/>
		<path fill="none" stroke="#FFFFFF" stroke-width="2" stroke-miterlimit="10" d="M142.724,561.546
			c-7.945,13.823-15.889,27.647-23.834,41.47c-4.122,7.173-8.245,14.346-12.367,21.518c-0.289,0.504-0.579,1.007-0.868,1.511"/>
		<path fill="none" stroke="#FFFFFF" stroke-width="2" stroke-miterlimit="10" d="M297.64,292C250,374,204,456,156.101,538.271"/>
		<path fill="none" stroke="#FFFFFF" stroke-width="2" stroke-miterlimit="10" d="M159.366,485.423C133,524,104,561,77.731,599.713"
			/>
		<path fill="none" stroke="#FFFFFF" stroke-width="2" stroke-miterlimit="10" d="M300.962,287.189C286,310,270,331,254,354
			c-24,32-44,62-66.688,92.299"/>
		<line fill="none" stroke="#FFFFFF" stroke-width="2" stroke-miterlimit="10" x1="300.962" y1="287.189" x2="63" y2="539"/>
		<path fill="none" stroke="#FFFFFF" stroke-width="2" stroke-miterlimit="10" d="M90.346,434.824C81,441,72,447,63,453.665"/>
		<path fill="none" stroke="#FFFFFF" stroke-width="2" stroke-miterlimit="10" d="M297.64,292C242,330,187,368,130.503,407.156"/>
		<line fill="none" stroke="#FFFFFF" stroke-width="2" stroke-miterlimit="10" x1="59" y1="403.551" x2="297.64" y2="292"/>
		<path fill="none" stroke="#FFFFFF" stroke-width="2" stroke-miterlimit="10" d="M127.649,329.308C186,315,243,301,300.962,287.189
			"/>
		<path fill="none" stroke="#FFFFFF" stroke-width="2" stroke-miterlimit="10" d="M71.307,343C81,342,90,338,99.329,336.19"/>
		<line fill="none" stroke="#FFFFFF" stroke-width="2" stroke-miterlimit="10" x1="56" y1="283.939" x2="297.64" y2="300.189"/>
		<line fill="none" stroke="#FFFFFF" stroke-width="2" stroke-miterlimit="10" x1="89.207" y1="232.356" x2="287.87" y2="292"/>
		<line fill="none" stroke="#FFFFFF" stroke-width="2" stroke-miterlimit="10" x1="82.727" y1="183" x2="297.64" y2="292"/>
		<line fill="none" stroke="#FFFFFF" stroke-width="2" stroke-miterlimit="10" x1="94.07" y1="128" x2="297.64" y2="292"/>
		<line fill="none" stroke="#FFFFFF" stroke-width="2" stroke-miterlimit="10" x1="98.977" y1="85.276" x2="297.64" y2="292"/>
		<path fill="none" stroke="#FFFFFF" stroke-width="2" stroke-miterlimit="10" d="M176.07,106.569C184,117,189,127,196,138
			c7,9,12,18,19,27c28,45,55,85,82.64,127"/>
		<path fill="none" stroke="#FFFFFF" stroke-width="2" stroke-miterlimit="10" d="M157.164,77.731
			c3.218,4.909,6.436,9.817,9.654,14.726"/>
		<path fill="none" stroke="#FFFFFF" stroke-width="2" stroke-miterlimit="10" d="M224.026,140.773C236,163,245,185,257,207
			c14,29,26,57,40.64,85"/>
		<path fill="none" stroke="#FFFFFF" stroke-width="2" stroke-miterlimit="10" d="M173.414,36.798C186,61,197,87,209.682,111.304"/>
		<line fill="none" stroke="#FFFFFF" stroke-width="2" stroke-miterlimit="10" x1="226.168" y1="49.807" x2="297.64" y2="292"/>
		<path fill="none" stroke="#FFFFFF" stroke-width="2" stroke-miterlimit="10" d="M267.019,49.609C275,133,283,215,291,297.73"/>
		<path fill="none" stroke="#FFFFFF" stroke-width="2" stroke-miterlimit="10" d="M300.468,80.619C300,151,297,222,297.64,292"/>
		<path fill="none" stroke="#FFFFFF" stroke-width="2" stroke-miterlimit="10" d="M300.86,48.514
			c-0.042,3.957-0.086,7.914-0.133,11.87"/>
		<path fill="none" stroke="#FFFFFF" stroke-width="2" stroke-miterlimit="10" d="M331.018,72.867
			c-6.812,45.616-14.177,91.147-21.214,136.728c-4.236,27.441-8.354,54.901-12.164,82.405"/>
		<line fill="none" stroke="#FFFFFF" stroke-width="2" stroke-miterlimit="10" x1="366.121" y1="44.307" x2="297.64" y2="292"/>
		<line fill="none" stroke="#FFFFFF" stroke-width="2" stroke-miterlimit="10" x1="380.878" y1="58" x2="300.962" y2="287.189"/>
		<path fill="none" stroke="#FFFFFF" stroke-width="2" stroke-miterlimit="10" d="M521.265,133.478
			c6.95-4.471,13.819-9.074,20.472-13.978"/>
		<path fill="none" stroke="#FFFFFF" stroke-width="2" stroke-miterlimit="10" d="M466.519,169.274
			c12.851-9.592,26.482-18.062,40.077-26.543"/>
		<path fill="none" stroke="#FFFFFF" stroke-width="2" stroke-miterlimit="10" d="M293.903,283.5
			c5.469-3.619,10.937-7.237,16.406-10.856c13.849-9.164,27.697-18.328,41.546-27.493c18.394-12.172,36.787-24.343,55.181-36.515
			c6.414-4.244,12.827-8.488,19.241-12.732"/>
		<circle fill="#DBCFE6" cx="297.64" cy="297.73" r="120.191"/>
	</g>
	<polygon fill="#E6E7E8" points="438.116,242.002 355.827,159.713 438.116,159.713 	"/>
	<polygon fill="#E6E7E8" points="157.164,242.002 239.453,159.713 157.164,159.713 	"/>
	<polygon fill="#E6E7E8" points="438.116,358.376 355.827,440.665 438.116,440.665 	"/>
	<polygon fill="#E6E7E8" stroke="#000000" stroke-miterlimit="10" points="157.164,358.376 239.453,440.665 157.164,440.665 	"/>
	
		<rect x="157.164" y="159.713" transform="matrix(0.7071 -0.7071 0.7071 0.7071 -125.0889 298.3866)" fill="#FFFFFF" stroke="#000000" stroke-miterlimit="10" width="280.952" height="280.952"/>
	<line fill="none" stroke="#000000" stroke-miterlimit="10" x1="297.64" y1="101.526" x2="297.64" y2="498.852"/>
	<line fill="none" stroke="#000000" stroke-miterlimit="10" x1="98.977" y1="300.189" x2="496.303" y2="300.189"/>
	<line fill="none" stroke="#000000" stroke-miterlimit="10" x1="297.64" y1="440.665" x2="438.116" y2="300.189"/>
	<circle fill="#8061AA" stroke="#000000" stroke-miterlimit="10" cx="98.977" cy="300.189" r="16.25"/>
	<circle fill="#8061AA" stroke="#000000" stroke-miterlimit="10" cx="297.64" cy="101.526" r="16.25"/>
	<circle fill="#EF3F47" stroke="#000000" stroke-miterlimit="10" cx="496.303" cy="300.189" r="16.25"/>
	<circle fill="#EF3F47" stroke="#000000" stroke-miterlimit="10" cx="297.64" cy="498.852" r="16.25"/>
	<circle fill="#FFFFFF" stroke="#000000" stroke-miterlimit="10" cx="402.997" cy="335.308" r="13"/>
	<circle fill="#FFFFFF" stroke="#000000" stroke-miterlimit="10" cx="332.759" cy="405.546" r="13"/>
	<circle fill="#FFFFFF" stroke="#000000" stroke-miterlimit="10" cx="297.64" cy="469.759" r="13"/>
	<circle fill="#FFFFFF" stroke="#000000" stroke-miterlimit="10" cx="403.764" cy="683.614" r="13"/>
	<text transform="matrix(1 0 0 1 178.5162 688.5766)" font-family="'TimesNewRomanPSMT'" font-size="18">Духовное предназначение</text>
	<circle fill="#EFDC1C" stroke="#000000" stroke-miterlimit="10" cx="297.64" cy="300.189" r="16.25"/>
	<circle fill="#FFFFFF" stroke="#000000" stroke-miterlimit="10" cx="367.878" cy="370.427" r="13"/>
	<path fill="#EF3F47" stroke="#010101" stroke-miterlimit="10" d="M323.508,377.419c-3.804-3.122-10.46-8.314-11.529-13.154
		c-0.319-1.444-0.34-3.007,0.267-4.364c0.607-1.357,1.935-2.45,3.406-2.473c1.574-0.024,2.912,1.106,3.938,2.298
		c1.449,1.685,2.602,3.629,3.39,5.716c0.819-2.055,2.044-3.949,3.58-5.538c1.07-1.107,2.644-2.125,4.036-1.51
		c0.647,0.286,1.109,0.882,1.435,1.514c1.536,2.978,0.445,6.721-1.424,9.535C328.738,372.258,327.19,373.286,323.508,377.419z"/>
	<path fill="#BCBEC0" d="M361.984,322.843l-0.077-0.346l-0.423-1.888l-0.844-0.375l-1.031-0.688l-0.5-0.875c0,0,0-0.703,0-0.781
		s0.438-0.406,0.438-0.406s0.438-0.109,0.531,0s0.516,0.328,0.578,0.375s0.594,0.328,0.594,0.328l0.5,0.203l0.563-0.141l0.463-0.453
		l0.317-0.438l0.555-0.359l0.353-0.078l0.906,0.156l0.938,0.609c0,0,0.594,0.313,0.641,0.328s0.75,0.25,0.75,0.25l0.734-0.109
		c0,0,0.328-0.438,0.391-0.516s0.219-0.344,0.266-0.438s0.172-0.453,0.188-0.578s0.047-0.672,0.078-0.75s0.266-0.656,0.266-0.656
		s0.297,0.063,0.344,0s0.5,0.031,0.547,0.094s0.422,0.328,0.422,0.328s0.313,0.422,0.328,0.469s0.172,0.625,0.094,0.766
		s-0.469,1.109-0.469,1.109s-1.578,0.952-1.672,1.07s-0.703,0.977-0.703,0.977v0.984c0,0,0.266,0.594,0.281,0.672
		s0.828,0.578,0.828,0.578l0.891,0.328l2.188,0.781l1.391,0.611l1.234,0.624c0,0,1.422,0.906,1.422,0.969s1.234,1.203,1.234,1.203
		l0.703,1.141l0.641,2.484l-0.344,1.672l-0.431,1.391l-0.866,1.578l-1.594,1.468l-1.922,1.271l-2,0.73l-2.719,0.391l-2.656,0.188
		h-2.406l-2.297-0.25l-2.516-0.641l-1.563-0.734l-1.422-1.234l-1.094-1.641l-0.406-1.656l0.25-2.125l1.094-1.641l1.531-1.359
		l1.656-1.172l1.172-1.172l0.813-1.141l0.438-0.781L361.984,322.843z"/>
	<path fill="#EEDC1A" d="M363.93,307.796l1.275,0.5l0.889,0.969l0.469,1.685l-0.625,1.877l-1.269,0.906c0,0-1.578,0.5-1.686,0.5
		c-0.108,0-1.358-0.281-1.358-0.281l-1.188-1l-0.719-1.25v-1.531l0.781-1.296l1.063-0.704L363.93,307.796z"/>
	<g>
		<path d="M377.948,326.533c-1.602-2.035-4.513-2.915-6.803-3.88c-0.439-0.185-0.921-0.266-1.353-0.455
			c-0.486-0.212-1.345-0.802-1.442-1.454c-0.004-0.025-0.004-0.047-0.007-0.071c0.072-0.061,0.145-0.12,0.215-0.183
			c0.179-0.161,0.078-0.436-0.111-0.519c0.204-0.434,0.646-0.706,1.048-0.992c0.884-0.627,1.648-1.124,1.876-2.248
			c0.004-0.02,0.005-0.039,0.006-0.057c0.001-0.01,0.005-0.017,0.005-0.027c0-0.992-0.694-1.607-1.595-1.858
			c-0.298-0.083-0.553-0.073-0.763,0.009c-0.064,0.004-0.129,0.026-0.189,0.074c-0.204,0.163-0.313,0.343-0.373,0.536
			c-0.05,0.125-0.091,0.259-0.115,0.41c-0.014,0.087,0.008,0.16,0.046,0.222c-0.001,0.232,0.006,0.474-0.034,0.72
			c-0.186,1.142-1.154,1.356-2.128,0.737c-0.262-0.167-0.465-0.396-0.717-0.572c-0.39-0.272-0.824-0.581-1.317-0.62
			c-1.009-0.081-1.072,0.634-1.629,1.214c-1.072,1.117-1.729-0.454-2.875-0.509c-0.048-0.011-0.101-0.01-0.16,0.009
			c-0.01,0.003-0.018,0.009-0.029,0.013c-0.013,0.005-0.025,0.01-0.037,0.017c-0.768,0.293-0.995,1.158-0.701,1.907
			c0.301,0.768,1.628,1.269,2.412,1.912c-0.137-0.007-0.273-0.009-0.41-0.018c-0.407-0.027-0.406,0.607,0,0.634
			c0.313,0.021,0.626,0.034,0.937,0.042c0.055,0.144,0.074,0.296,0.047,0.461c-0.001,0.006-0.005,0.011-0.006,0.017
			c-0.002,0.017-0.007,0.034-0.009,0.051c-0.006,0.024-0.011,0.049-0.019,0.074c-0.107-0.01-0.213-0.02-0.32-0.034
			c-0.313-0.041-0.43,0.458-0.16,0.591c0.107,0.053,0.215,0.1,0.323,0.147c-1.257,3.959-7.224,5.054-7.32,9.676
			c-0.094,4.554,4.79,6.481,8.563,6.803c4.455,0.38,9.621,0.223,13.268-2.709C379.005,334.247,380.474,329.742,377.948,326.533z
			 M368.479,322.101c-1.617,0.817-3.394,1.048-5.111,0.673c1.591-0.139,3.095-0.706,4.409-1.656
			C367.914,321.531,368.165,321.845,368.479,322.101z M362.353,322.17c0.009-0.055,0.021-0.108,0.028-0.165
			c0.007-0.055,0-0.101-0.015-0.141c-0.001-0.114-0.013-0.227-0.037-0.337c1.51-0.01,2.999-0.183,4.47-0.52
			C365.456,321.814,363.941,322.208,362.353,322.17z M359.555,319.027c-0.278-0.363-0.524-1.143,0.109-1.38
			c0.978,0.034,1.512,1.4,2.581,1.08c0.389-0.117,0.596-0.423,0.798-0.745c0.365-0.58,0.112-0.537,1.034-0.665
			c0.982-0.135,1.002,0.192,1.752,0.698c0.776,0.524,1.662,0.871,2.475,0.215c0.355-0.287,0.548-0.646,0.644-1.086
			c0.101-0.464-0.09-1.21,0.185-1.651c0.109-0.128,0.278-0.156,0.565-0.067c0.586,0.183,1.034,0.535,1.047,1.192
			c-0.368,1.543-2.791,1.957-3.058,3.505c-1.847,0.525-3.719,0.781-5.628,0.77c-0.112-0.168-0.251-0.326-0.413-0.473
			c-0.386-0.349-0.87-0.538-1.312-0.8C360.051,319.453,359.759,319.294,359.555,319.027z M366.175,338.796
			c-2.455,0.016-5.055-0.035-7.343-1.017c-2.315-0.993-4.479-3.313-3.864-6.038c0.798-3.532,4.936-4.757,6.683-7.668
			c-0.088,1.681,0.665,3.244,2.11,4.292c0.331,0.24,0.648-0.31,0.32-0.548c-1.29-0.936-1.911-2.345-1.788-3.842
			c0.724,1.362,1.857,2.447,3.297,3.08c0.37,0.163,0.693-0.384,0.32-0.548c-1.48-0.651-2.639-1.798-3.277-3.276
			c2.152,0.636,4.429,0.392,6.454-0.734c0.573,0.302,1.233,0.509,1.805,0.749c1.999,0.837,4.435,1.555,6.022,3.095
			c1.789,1.737,2.09,4.394,1.168,6.646C376.188,337.613,370.629,338.766,366.175,338.796z"/>
		<path d="M360.652,313.672c1.768,1.409,4.278,0.914,5.664-0.765c0.002-0.002,0.003-0.004,0.004-0.007
			c0.016-0.017,0.031-0.036,0.045-0.058c1.078-1.704,0.532-4.19-1.369-5.085c-1.559-0.734-4.168-0.317-5.146,1.181
			C358.828,310.505,359.205,312.52,360.652,313.672z M360.177,309.685c0.643-1.37,2.438-1.809,3.85-1.543
			c1.987,0.375,2.841,2.684,1.803,4.358c-1.021,1.202-2.76,1.803-4.236,1.031C360.187,312.795,359.484,311.162,360.177,309.685z"/>
		<path d="M363.13,320.168c-0.533-0.528-1.172-0.902-1.894-1.11c-0.147-0.042-0.21,0.187-0.063,0.229
			c0.684,0.196,1.283,0.548,1.789,1.048C363.071,320.444,363.239,320.276,363.13,320.168z"/>
		<path d="M363.041,319.68c0.142,0.079,0.285,0.159,0.427,0.238c0.134,0.075,0.254-0.131,0.12-0.205
			c-0.142-0.079-0.285-0.159-0.427-0.238C363.027,319.4,362.907,319.605,363.041,319.68z"/>
		<path d="M363.942,319.59c0.128,0.085,0.247-0.121,0.12-0.205c-0.048-0.032-0.095-0.063-0.143-0.095
			c-0.128-0.085-0.247,0.121-0.12,0.205C363.846,319.526,363.894,319.558,363.942,319.59z"/>
		<path d="M370.766,323.992c-0.145-0.049-0.208,0.18-0.063,0.229c2.419,0.824,5.138,1.766,6.49,4.118
			c1.584,2.756-0.108,5.232-1.9,7.33c-0.099,0.116,0.069,0.285,0.168,0.168c1.64-1.919,3.329-4.196,2.318-6.829
			C376.654,326.079,373.493,324.92,370.766,323.992z"/>
		<path d="M376.213,332.925c1.012-1.836,0.806-3.914-0.562-5.504c-0.1-0.116-0.268,0.053-0.168,0.168
			c1.294,1.503,1.485,3.475,0.525,5.216C375.934,332.939,376.139,333.059,376.213,332.925z"/>
		<path d="M375.44,332.409c0.109-0.618,0.219-1.236,0.328-1.854c0.026-0.15-0.203-0.214-0.229-0.063
			c-0.109,0.618-0.219,1.236-0.328,1.854C375.184,332.496,375.413,332.56,375.44,332.409z"/>
		<path d="M365.091,337.996c-3.387,0.183-6.589-1.297-8.628-4.012c-0.091-0.121-0.297-0.003-0.205,0.12
			c2.09,2.783,5.355,4.318,8.834,4.13C365.243,338.225,365.244,337.988,365.091,337.996z"/>
		<path d="M367.158,337.788c-0.317,0.061-0.635,0.122-0.952,0.183c-0.15,0.029-0.087,0.258,0.063,0.229
			c0.317-0.061,0.635-0.122,0.952-0.183C367.372,337.988,367.308,337.759,367.158,337.788z"/>
		<path d="M360.213,336.082c1.308,0.566,2.66,0.925,4.076,1.081c0.152,0.017,0.151-0.221,0-0.238
			c-1.374-0.151-2.688-0.5-3.956-1.049C360.194,335.816,360.073,336.021,360.213,336.082z"/>
		<path d="M365.617,336.811c-0.111,0-0.222,0-0.333,0c-0.153,0-0.153,0.238,0,0.238c0.111,0,0.222,0,0.333,0
			C365.771,337.049,365.771,336.811,365.617,336.811z"/>
		<path d="M370.253,331.322c-0.002-0.001-0.005-0.001-0.007-0.002c-0.007-0.003-0.013-0.008-0.021-0.01
			c-0.503-0.128-1.308-0.059-2.146-0.005c-0.201-0.709-0.403-1.418-0.604-2.127c0.651,0.048,1.26,0.264,1.832,0.589
			c0.133,0.076,0.253-0.13,0.12-0.205c-0.424-0.241-1.199-0.472-2.001-0.555c-0.065-0.23-0.131-0.46-0.196-0.691
			c-0.042-0.147-0.271-0.085-0.229,0.063c0.057,0.202,0.115,0.404,0.172,0.606c-0.305-0.019-0.608-0.015-0.894,0.019
			c-0.002-0.226-0.004-0.452-0.007-0.678c-0.001-0.153-0.239-0.153-0.238,0c0.002,0.238,0.005,0.476,0.007,0.714
			c-0.829,0.159-1.444,0.617-1.354,1.584c0.001,0.014,0.006,0.026,0.011,0.038c0.002,0.007,0.002,0.015,0.005,0.022
			c0.261,0.591,0.768,0.784,1.362,0.833c0.009,0.862,0.017,1.723,0.026,2.585c-0.053-0.001-0.105,0-0.157-0.001
			c-1.315-0.08-3.105-0.643-2.904-2.303c0.018-0.152-0.22-0.15-0.238,0c-0.218,1.796,1.705,2.453,3.142,2.541
			c0.052,0.002,0.106,0.003,0.16,0.004c0.002,0.18,0.004,0.361,0.005,0.541c0.002,0.153,0.239,0.153,0.238,0
			c-0.002-0.179-0.004-0.357-0.005-0.536c0.705,0.012,1.537-0.008,2.324-0.145c0.109,0.384,0.218,0.768,0.327,1.152
			c0.042,0.147,0.271,0.085,0.229-0.063c-0.107-0.378-0.215-0.756-0.322-1.134c0.674-0.141,1.299-0.377,1.754-0.768
			C371.454,332.694,371.149,331.728,370.253,331.322z M367.125,329.167c0.034-0.001,0.066,0.002,0.1,0.002
			c0.204,0.717,0.407,1.434,0.611,2.151c-0.533,0.032-1.065,0.046-1.534-0.005c-0.007-0.685-0.014-1.37-0.02-2.055
			C366.577,329.198,366.876,329.172,367.125,329.167z M364.924,330.591c-0.049-0.725,0.496-1.094,1.12-1.273
			c0.006,0.655,0.013,1.31,0.019,1.964C365.534,331.192,365.116,330.992,364.924,330.591z M366.329,334.105
			c-0.009-0.858-0.017-1.717-0.026-2.575c0.514,0.014,1.042-0.033,1.571-0.074c0.231,0.814,0.463,1.629,0.694,2.443
			C367.825,334.05,367.082,334.108,366.329,334.105z M369.809,333.571c-0.324,0.124-0.667,0.207-1.007,0.281
			c-0.229-0.805-0.457-1.609-0.686-2.414c0.689-0.049,1.377-0.067,2.034,0.099C371.055,331.969,370.589,333.272,369.809,333.571z"/>
		<path d="M362.3,311.015c0.066,0.407,0.132,0.813,0.197,1.22c-0.179-0.057-0.352-0.122-0.509-0.181
			c-0.143-0.054-0.205,0.176-0.063,0.229c0.191,0.072,0.399,0.147,0.614,0.206c0.013,0.079,0.026,0.158,0.038,0.237
			c0.024,0.151,0.254,0.087,0.229-0.063c-0.006-0.038-0.012-0.077-0.019-0.115c0.251,0.049,0.504,0.066,0.743,0.015
			c0.059,0.246,0.117,0.492,0.176,0.738c0.035,0.149,0.265,0.086,0.229-0.063c-0.059-0.249-0.119-0.498-0.178-0.747
			c0.098-0.042,0.193-0.096,0.281-0.17c0.333-0.274,0.557-0.772,0.345-1.185c-0.205-0.398-0.647-0.465-1.055-0.447
			c-0.094-0.396-0.188-0.792-0.283-1.188c0.305-0.002,0.612,0.061,0.885,0.177c0.139,0.059,0.261-0.146,0.12-0.205
			c-0.342-0.145-0.702-0.214-1.06-0.2c-0.024-0.102-0.048-0.204-0.073-0.306c-0.035-0.149-0.265-0.086-0.229,0.063
			c0.021,0.088,0.042,0.176,0.063,0.265c-0.159,0.023-0.317,0.064-0.472,0.124c-0.025-0.152-0.049-0.304-0.074-0.456
			c-0.024-0.151-0.254-0.087-0.229,0.063c0.026,0.163,0.053,0.326,0.079,0.489c-0.44,0.223-0.824,0.588-0.512,1.099
			C361.731,310.916,362.002,311.006,362.3,311.015z M362.749,312.303c-0.07-0.432-0.14-0.864-0.21-1.296
			c0.202-0.017,0.409-0.053,0.604-0.074c0.111,0.466,0.222,0.932,0.332,1.397C363.242,312.383,362.994,312.361,362.749,312.303z
			 M364.208,311.327c0.102,0.328-0.133,0.697-0.396,0.87c-0.035,0.023-0.074,0.037-0.111,0.055
			c-0.106-0.445-0.211-0.889-0.317-1.334C363.695,310.913,364.089,310.947,364.208,311.327z M362.806,309.516
			c0.094,0.397,0.189,0.794,0.283,1.191c-0.176,0.02-0.382,0.067-0.586,0.084c-0.062-0.381-0.123-0.762-0.185-1.143
			C362.473,309.58,362.638,309.537,362.806,309.516z M362.098,309.764c0.055,0.342,0.111,0.683,0.166,1.025
			c-0.15-0.015-0.291-0.06-0.409-0.168C361.533,310.329,361.782,309.968,362.098,309.764z"/>
	</g>
	<circle fill="#FFFFFF" stroke="#000000" stroke-miterlimit="10" cx="258.914" cy="619.379" r="13"/>
	<circle fill="#FFFFFF" stroke="#000000" stroke-miterlimit="10" cx="170.164" cy="599.713" r="13"/>
	<circle fill="#FFFFFF" stroke="#000000" stroke-miterlimit="10" cx="170.164" cy="639.046" r="13"/>
	<line fill="none" stroke="#000000" stroke-miterlimit="10" x1="214.539" y1="619.379" x2="240.539" y2="619.379"/>
	<polyline fill="none" stroke="#000000" stroke-miterlimit="10" points="188.539,639.046 214.539,639.046 214.539,599.713 
		188.539,599.713 	"/>
	<text transform="matrix(1 0 0 1 183.5311 547.0463)"><tspan x="0" y="0" font-family="'TimesNewRomanPSMT'" font-size="18">Личное </tspan><tspan x="-30.208" y="21.6" font-family="'TimesNewRomanPSMT'" font-size="18">предназначение</tspan></text>
	<circle fill="#FFFFFF" stroke="#000000" stroke-miterlimit="10" cx="425.116" cy="619.379" r="13"/>
	<circle fill="#FFFFFF" stroke="#000000" stroke-miterlimit="10" cx="336.366" cy="599.712" r="13"/>
	<circle fill="#FFFFFF" stroke="#000000" stroke-miterlimit="10" cx="336.366" cy="639.046" r="13"/>
	<line fill="none" stroke="#000000" stroke-miterlimit="10" x1="380.741" y1="619.379" x2="406.741" y2="619.379"/>
	<polyline fill="none" stroke="#000000" stroke-miterlimit="10" points="354.741,639.046 380.741,639.046 380.741,599.712 
		354.741,599.712 	"/>
	<text transform="matrix(1 0 0 1 332.4537 547.0464)"><tspan x="0" y="0" font-family="'TimesNewRomanPSMT'" font-size="18">Социальное </tspan><tspan x="-12.929" y="21.6" font-family="'TimesNewRomanPSMT'" font-size="18">предназначение</tspan></text>
	<rect x="157.164" y="159.713" fill="none" stroke="#000000" stroke-miterlimit="10" width="280.952" height="280.952"/>
	<circle fill="#F2A644" stroke="#000000" stroke-miterlimit="10" cx="438.116" cy="300.189" r="13"/>
	<circle fill="#50B0E3" stroke="#000000" stroke-miterlimit="10" cx="157.164" cy="300.189" r="13"/>
	<circle fill="#FFFFFF" stroke="#000000" stroke-miterlimit="10" cx="157.164" cy="159.713" r="16.25"/>
	<circle fill="#FFFFFF" stroke="#000000" stroke-miterlimit="10" cx="438.116" cy="159.713" r="16.25"/>
	<circle fill="#50B0E3" stroke="#000000" stroke-miterlimit="10" cx="297.64" cy="159.713" r="13"/>
	<circle fill="#F2A644" stroke="#000000" stroke-miterlimit="10" cx="297.64" cy="440.665" r="13"/>
	<circle fill="#FFFFFF" stroke="#000000" stroke-miterlimit="10" cx="157.164" cy="440.665" r="16.25"/>
	<circle fill="#FFFFFF" stroke="#000000" stroke-miterlimit="10" cx="438.116" cy="440.665" r="16.25"/>
</g>
<g id="Sun_x5F_Rays">
</g>
</svg>
